<svg xmlns="http://www.w3.org/2000/svg" viewBox="0 0 32 32"><path fill="#E3F8FB" d="M7,31c-3.31368,0 -6,-2.68632 -6,-6v-18c0,-3.31368 2.68632,-6 6,-6h18c3.31368,0 6,2.68632 6,6v18c0,3.31368 -2.68632,6 -6,6Z"/><path fill="#25C6DA" fill-rule="evenodd" d="M16,5.25c-5.9371,0 -10.75,4.8129 -10.75,10.75c0,5.9371 4.8129,10.75 10.75,10.75c5.9371,0 10.75,-4.8129 10.75,-10.75c0,-5.9371 -4.8129,-10.75 -10.75,-10.75Z"/><g fill="#8DE2EC" fill-rule="evenodd"><path d="M16.0266,12.7417c-1.9538,-0.2495 -3.8377,0.1605 -5.431,1.0569c-0.361,0.2031 -0.81829,0.0751 -1.02139,-0.2859c-0.2031,-0.361 -0.07509,-0.8183 0.28591,-1.0214c1.86478,-1.0491 4.07198,-1.5292 6.35648,-1.2375c2.4167,0.3085 4.5324,1.4313 6.104,3.0567c0.2879,0.2978 0.2799,0.7726 -0.0179,1.0605c-0.2977,0.288 -0.7726,0.28 -1.0605,-0.0178c-1.3432,-1.3893 -3.149,-2.3477 -5.2156,-2.6115Z"/><path d="M15.5629 15.7068c-1.5317-.1956-3.0195.0142-4.358.5451-.3851.1527-.821-.0356-.9737-.4206-.1527-.3851.0356-.821.4206-.9737 1.5683-.6221 3.3114-.8672 5.1011-.6387 1.8922.2416 3.6007.9825 5.0079 2.0739.3273.2538.3869.7249.133 1.0522-.2538.3273-.725.3869-1.0523.1331-1.2012-.9317-2.6594-1.5646-4.2786-1.7713zM15.0642 18.6675c-1.1296-.1442-2.2347-.068-3.2734.1945-.4016.1015-.8094-.1418-.9109-.5434-.1015-.4016.1418-.8094.5434-.9109 1.2178-.3077 2.512-.3965 3.8309-.2281 1.384.1767 2.6705.6207 3.8128 1.2741.3595.2057.4842.6639.2785 1.0234-.2056.3596-.6638.4843-1.0234.2786-.9743-.5573-2.0726-.9369-3.2579-1.0882z"/></g></svg>